<mxfile host="app.diagrams.net" modified="2024-06-21T16:20:14.877Z" agent="5.0 (Macintosh; Intel Mac OS X 10_15_7) AppleWebKit/537.36 (KHTML, like Gecko) Chrome/126.0.0.0 Safari/537.36" version="20.6.0" etag="0dJAExmmlzlYmjIDgF39" type="github">
  <diagram id="xqeI1H8hTC0-fts6pB7e" name="Page-1">
    <mxGraphModel dx="4404" dy="1946" grid="1" gridSize="10" guides="1" tooltips="1" connect="1" arrows="1" fold="1" page="1" pageScale="1" pageWidth="1169" pageHeight="827" math="0" shadow="0">
      <root>
        <mxCell id="0" />
        <mxCell id="1" parent="0" />
        <mxCell id="M3GZlmYnajYYswTwf8LS-1" value="Requirements&lt;br&gt;&lt;div&gt;1) Registering a user&lt;/div&gt;&lt;div&gt;2) Login (2-factor auth)&lt;/div&gt;&lt;div&gt;3) Profile Creation&lt;/div&gt;&lt;div&gt;4) Set preferences&lt;/div&gt;&lt;div&gt;5) Sending Emails (with&lt;/div&gt;&lt;div&gt;attachments)&lt;/div&gt;&lt;div&gt;6) Searching Emails&lt;/div&gt;&lt;div&gt;7) Tagging Emails&lt;/div&gt;&lt;div&gt;8) Spam and Virus Detection&lt;/div&gt;&lt;div&gt;9) Contacts and Groups&lt;/div&gt;&lt;div&gt;&lt;br&gt;&lt;/div&gt;" style="strokeWidth=1;shadow=0;dashed=0;align=center;html=1;shape=mxgraph.mockup.text.stickyNote2;fontColor=#666666;mainText=;fontSize=17;whiteSpace=wrap;fillColor=#ffffcc;strokeColor=#F62E00;" vertex="1" parent="1">
          <mxGeometry x="-2150" y="-20" width="280" height="330" as="geometry" />
        </mxCell>
      </root>
    </mxGraphModel>
  </diagram>
</mxfile>
